<?xml version="1.0" encoding="utf-8"?>
<!-- Generator: Adobe Adobe Illustrator 29.2.0, SVG Export Plug-In . SVG Version: 6.00 Build 0)  -->
<svg version="1.1" xmlns="http://www.w3.org/2000/svg" xmlns:xlink="http://www.w3.org/1999/xlink" x="0px" y="0px"
	 viewBox="0 0 48 46" style="enable-background:new 0 0 48 46;" xml:space="preserve">
<style type="text/css">
	.st0{fill:#FFD500;stroke:#FFD500;stroke-miterlimit:10;}
	.st1{fill:#FFE563;}
	.st2{font-family:'SourceSansPro-Regular';}
	.st3{font-size:21px;}
</style>
<g id="Layer_1">
	<path class="st0" d="M25.6,3.2L25.6,3.2C25.6,3.2,25.6,3.2,25.6,3.2h-0.5h-0.7l0,0c-1.5,0-3,0-4.5,0l0,0c-0.9,0-1.7,0.1-2.6,0.2
		l0,0c-0.7,0.1-1.4,0.3-2,0.5l0,0c-0.6,0.2-1.1,0.4-1.7,0.6l0,0c-0.5,0.2-0.9,0.4-1.4,0.6l0,0c-0.4,0.2-0.8,0.5-1.2,0.7l0,0
		c-0.4,0.2-0.7,0.5-1.1,0.8l0,0C9.7,7,9.4,7.2,9.1,7.5l0,0C8.8,7.7,8.5,8,8.3,8.3l-0.9,1l-0.8,1l-0.7,1l-0.6,1.1l-0.6,1.1l-0.5,1.1
		l-0.4,1.1l0,0c-0.1,0.3-0.2,0.7-0.3,1.1l0,0c-0.1,0.4-0.2,0.8-0.2,1.2L3,19.3L3,20.7l0,1.5l0,1.5l0,0c0,0.5,0,1,0.1,1.4l0,0
		c0.1,0.5,0.2,0.9,0.3,1.4l0,0c0.1,0.5,0.3,0.9,0.5,1.3l0,0c0.2,0.4,0.4,0.9,0.6,1.3l0.7,1.1l0.7,1l0.8,1.1l0.9,1.2l1,1.1l1.1,1.1
		l1.2,1.1l1.3,1.1l1.2,1l1.2,0.9l1.3,0.9l1.4,0.9l1.5,0.8l1.4,0.7l1.5,0.6l1.5,0.6l0,0c0.5,0.2,1,0.3,1.4,0.4l0,0
		c0.5,0.1,1,0.2,1.5,0.3l0,0c0.5,0.1,1.1,0.1,1.6,0.1l0,0c0.5,0,1.1,0,1.6,0l0,0c0.6,0,1.1-0.1,1.6-0.2l0,0c0.6-0.1,1.2-0.3,1.8-0.5
		l0,0c0.7-0.2,1.3-0.5,1.9-0.8l0,0c0.7-0.4,1.5-0.8,2.1-1.3l0,0c0.8-0.6,1.6-1.2,2.3-1.9l0,0c0.8-0.7,1.5-1.5,2.1-2.4l0,0
		c0.6-0.8,1.2-1.8,1.7-2.7l0,0c0.5-0.9,1-1.9,1.4-2.9l0,0c0.4-0.8,0.7-1.7,1-2.6l0.6-2l0.3-1.6l0.2-1.3l0,0c0-0.3,0.1-0.7,0.1-1l0,0
		c0-0.4,0-0.8,0-1.3l0,0c-0.1-0.7-0.3-1.5-0.6-2.1l0,0c-0.5-1-1.1-2-1.8-2.9l0,0c-0.9-1.2-1.9-2.2-2.9-3.3l0,0
		c-1.2-1.3-2.4-2.5-3.7-3.6l0,0c-1.2-1.1-2.5-2.2-3.8-3.1l0,0c-1.1-0.8-2.2-1.5-3.4-2.2l0,0c-1-0.6-2-1.1-3-1.5l0,0
		c-0.9-0.4-1.8-0.7-2.7-0.9l0,0c-0.9-0.2-1.8-0.3-2.8-0.4l0,0c-0.9-0.1-1.8-0.1-2.7,0l0,0C18.7,2.7,17.8,2.8,17,3"/>
</g>
<g id="Layer_2">
	<text transform="matrix(1 0 0 1 8.6541 27.5154)" class="st1 st2 st3">agd</text>
</g>
</svg>
